<svg width="415" height="72" viewBox="0 0 415 72" fill="none" xmlns="http://www.w3.org/2000/svg">
<path d="M379.004 71V1H392.204L403.304 43.1H404.504L402.704 20.7L402.404 1H414.904V71H401.704L390.604 28.9H389.404L391.204 51.3L391.504 71H379.004Z" fill="#043F28"/>
<path d="M338.148 38V34C338.148 11.2 344.048 0 356.348 0C368.648 0 374.548 11.2 374.548 34V38C374.548 60.8 368.648 72 356.348 72C344.048 72 338.148 60.8 338.148 38ZM351.548 16.1V55.9C351.548 60 353.048 63 356.348 63C359.648 63 361.148 60 361.148 55.9V16.1C361.148 12 359.648 9 356.348 9C353.048 9 351.548 12 351.548 16.1Z" fill="#043F28"/>
<path d="M320.801 1H333.601V71H320.801V1Z" fill="#043F28"/>
<path d="M307.981 10V71H295.181V10H286.281V1H316.781V10H307.981Z" fill="#043F28"/>
<path d="M272.179 40.9H285.579V44.3C285.579 63.5 277.879 72 267.479 72C256.579 72 249.379 63.2 249.379 38V34C249.379 8.8 256.679 0 267.479 0C277.879 0 285.579 8.8 285.579 27.5V29.9H272.179V16.1C272.179 12 270.779 9 267.479 9C264.179 9 262.779 12 262.779 16.1V55.9C262.779 60 264.179 63 267.479 63C270.779 63 272.179 60 272.179 55.9V40.9Z" fill="#043F28"/>
<path d="M233.107 55.9V1H245.907V46.3C245.907 64.3 239.407 72 228.607 72C217.807 72 211.207 64.3 211.207 46.3V1H224.007V55.9C224.007 60 225.307 63 228.607 63C231.907 63 233.107 60 233.107 55.9Z" fill="#043F28"/>
<path d="M171.875 1H188.575C202.075 1 207.675 12.3 207.675 34.1V38.6C207.675 59.9 202.175 71 189.075 71H171.875V1ZM194.275 54.9V17.1C194.275 13 192.775 10 188.675 10H184.675V62H188.675C192.775 62 194.275 59 194.275 54.9Z" fill="#043F28"/>
<path d="M131.02 38V34C131.02 11.2 136.92 0 149.22 0C161.52 0 167.42 11.2 167.42 34V38C167.42 60.8 161.52 72 149.22 72C136.92 72 131.02 60.8 131.02 38ZM144.42 16.1V55.9C144.42 60 145.92 63 149.22 63C152.52 63 154.02 60 154.02 55.9V16.1C154.02 12 152.52 9 149.22 9C145.92 9 144.42 12 144.42 16.1Z" fill="#043F28"/>
<path d="M125.262 47.6L127.462 71L114.762 71.1L112.562 45.4C112.262 42.3 110.762 40.4 107.662 40.4H106.062V71H93.2617V1H109.362C120.162 1 127.562 7.6 127.562 19.6C127.562 30.1 121.862 34.8 116.462 35.3V36.5C120.262 36.9 124.462 38.9 125.262 47.6ZM106.062 10V31.4H108.562C112.662 31.4 114.162 28.4 114.162 24.3V17.1C114.162 13 112.662 10 108.562 10H106.062Z" fill="#043F28"/>
<path d="M80.4422 10V71H67.6422V10H58.7422V1H89.2422V10H80.4422Z" fill="#043F28"/>
<path d="M18.8477 71V1H32.0477L43.1477 43.1H44.3477L42.5477 20.7L42.2477 1H54.7477V71H41.5477L30.4477 28.9H29.2477L31.0477 51.3L31.3477 71H18.8477Z" fill="#043F28"/>
<path d="M0 1H12.8V71H0V1Z" fill="#043F28"/>
</svg>
