<svg width="1540" height="72" viewBox="0 0 1540 72" fill="none" xmlns="http://www.w3.org/2000/svg">
<path d="M1503.97 71V1H1517.17L1528.27 43.1H1529.47L1527.67 20.7L1527.37 1H1539.87V71H1526.67L1515.57 28.9H1514.37L1516.17 51.3L1516.47 71H1503.97Z" fill="#043F28"/>
<path d="M1463.12 38V34C1463.12 11.2 1469.02 0 1481.32 0C1493.62 0 1499.52 11.2 1499.52 34V38C1499.52 60.8 1493.62 72 1481.32 72C1469.02 72 1463.12 60.8 1463.12 38ZM1476.52 16.1V55.9C1476.52 60 1478.02 63 1481.32 63C1484.62 63 1486.12 60 1486.12 55.9V16.1C1486.12 12 1484.62 9 1481.32 9C1478.02 9 1476.52 12 1476.52 16.1Z" fill="#043F28"/>
<path d="M1445.77 1H1458.57V71H1445.77V1Z" fill="#043F28"/>
<path d="M1432.95 10V71H1420.15V10H1411.25V1H1441.75V10H1432.95Z" fill="#043F28"/>
<path d="M1412.04 71H1398.84L1397.24 55.8H1388.24L1386.64 71H1373.44L1384.24 1H1401.24L1412.04 71ZM1390.64 33.5L1389.24 46.8H1396.24L1394.84 33.5L1393.34 13.9H1392.14L1390.64 33.5Z" fill="#043F28"/>
<path d="M1336.88 1H1353.58C1367.08 1 1372.68 12.3 1372.68 34.1V38.6C1372.68 59.9 1367.18 71 1354.08 71H1336.88V1ZM1359.28 54.9V17.1C1359.28 13 1357.78 10 1353.68 10H1349.68V62H1353.68C1357.78 62 1359.28 59 1359.28 54.9Z" fill="#043F28"/>
<path d="M1294.99 71V1H1308.19L1319.29 43.1H1320.49L1318.69 20.7L1318.39 1H1330.89V71H1317.69L1306.59 28.9H1305.39L1307.19 51.3L1307.49 71H1294.99Z" fill="#043F28"/>
<path d="M1277.22 55.9V1H1290.02V46.3C1290.02 64.3 1283.52 72 1272.72 72C1261.92 72 1255.32 64.3 1255.32 46.3V1H1268.12V55.9C1268.12 60 1269.42 63 1272.72 63C1276.02 63 1277.22 60 1277.22 55.9Z" fill="#043F28"/>
<path d="M1215.46 38V34C1215.46 11.2 1221.36 0 1233.66 0C1245.96 0 1251.86 11.2 1251.86 34V38C1251.86 60.8 1245.96 72 1233.66 72C1221.36 72 1215.46 60.8 1215.46 38ZM1228.86 16.1V55.9C1228.86 60 1230.36 63 1233.66 63C1236.96 63 1238.46 60 1238.46 55.9V16.1C1238.46 12 1236.96 9 1233.66 9C1230.36 9 1228.86 12 1228.86 16.1Z" fill="#043F28"/>
<path d="M1211.95 29.2V38.2H1201.15V71H1188.35V1H1212.95V10H1201.15V29.2H1211.95Z" fill="#043F28"/>
<path d="M1161.56 10V71H1148.76V10H1139.86V1H1170.36V10H1161.56Z" fill="#043F28"/>
<path d="M1102.76 38V34C1102.76 11.2 1108.66 0 1120.96 0C1133.26 0 1139.16 11.2 1139.16 34V38C1139.16 60.8 1133.26 72 1120.96 72C1108.66 72 1102.76 60.8 1102.76 38ZM1116.16 16.1V55.9C1116.16 60 1117.66 63 1120.96 63C1124.26 63 1125.76 60 1125.76 55.9V16.1C1125.76 12 1124.26 9 1120.96 9C1117.66 9 1116.16 12 1116.16 16.1Z" fill="#043F28"/>
<path d="M1065.4 71V1.1H1078.2V29.7H1079.4L1089.2 1H1102.6L1090.8 33.3L1105.1 71H1091.2L1079.4 38.9H1078.2V71H1065.4Z" fill="#043F28"/>
<path d="M1047.58 1H1060.38V48.8C1060.38 64.2 1054.38 72 1043.58 72C1032.78 72 1026.78 64.2 1026.78 48.8V39.8H1039.58V56.3C1039.58 60.4 1040.68 63 1043.58 63C1046.48 63 1047.58 60.4 1047.58 56.3V1Z" fill="#043F28"/>
<path d="M1025.61 71H1012.41L1010.81 55.8H1001.81L1000.21 71H987.012L997.812 1H1014.81L1025.61 71ZM1004.21 33.5L1002.81 46.8H1009.81L1008.41 33.5L1006.91 13.9H1005.71L1004.21 33.5Z" fill="#043F28"/>
<path d="M982.554 47.6L984.754 71L972.054 71.1L969.854 45.4C969.554 42.3 968.054 40.4 964.954 40.4H963.354V71H950.554V1H966.654C977.454 1 984.854 7.6 984.854 19.6C984.854 30.1 979.154 34.8 973.754 35.3V36.5C977.554 36.9 981.754 38.9 982.554 47.6ZM963.354 10V31.4H965.854C969.954 31.4 971.454 28.4 971.454 24.3V17.1C971.454 13 969.954 10 965.854 10H963.354Z" fill="#043F28"/>
<path d="M895.734 38V34C895.734 11.2 901.634 0 913.934 0C926.234 0 932.134 11.2 932.134 34V38C932.134 60.8 926.234 72 913.934 72C901.634 72 895.734 60.8 895.734 38ZM909.134 16.1V55.9C909.134 60 910.634 63 913.934 63C917.234 63 918.734 60 918.734 55.9V16.1C918.734 12 917.234 9 913.934 9C910.634 9 909.134 12 909.134 16.1Z" fill="#043F28"/>
<path d="M891.732 29.2V38.2H880.932V62H892.732V71H868.132V1H892.732V10H880.932V29.2H891.732Z" fill="#043F28"/>
<path d="M826.237 71V1H839.438L850.537 43.1H851.737L849.938 20.7L849.638 1H862.138V71H848.938L837.837 28.9H836.638L838.438 51.3L838.737 71H826.237Z" fill="#043F28"/>
<path d="M792.425 23.2C792.425 16.4 795.425 12.5 799.925 12.5C804.325 12.5 807.225 16.4 807.225 23.2C807.225 30 804.325 33.9 799.925 33.9C795.425 33.9 792.425 30 792.425 23.2ZM792.425 60.8C792.425 54 795.425 50.1 799.925 50.1C804.325 50.1 807.225 54 807.225 60.8C807.225 67.6 804.325 71.5 799.925 71.5C795.425 71.5 792.425 67.6 792.425 60.8Z" fill="#043F28"/>
<path d="M782.559 10V71H769.759V10H760.859V1H791.359V10H782.559Z" fill="#043F28"/>
<path d="M734.643 28.2H744.043V1H756.843V71H744.043V37.2H734.643V71H721.843V1H734.643V28.2Z" fill="#043F28"/>
<path d="M698.113 0C708.913 0 716.313 8.7 716.313 26.5L702.913 26.6V16.1C702.913 12 701.413 9 698.113 9C694.813 9 693.313 12 693.313 16.1V53.2C693.313 58.3 695.013 61.3 698.413 61.3C701.813 61.3 703.513 58.3 703.513 53.2V43.1H698.513V34.1H716.313V71H708.513L706.713 64.9H705.513C703.913 67.2 701.413 72 694.813 72C686.713 72 679.913 63.2 679.913 38V34C679.913 8.8 687.313 0 698.113 0Z" fill="#043F28"/>
<path d="M662.566 1H675.366V71H662.566V1Z" fill="#043F28"/>
<path d="M646.752 1V62H658.552V71H633.952V1H646.752Z" fill="#043F28"/>
<path d="M621.133 10V71H608.333V10H599.433V1H629.933V10H621.133Z" fill="#043F28"/>
<path d="M562.335 38V34C562.335 11.2 568.235 0 580.535 0C592.835 0 598.735 11.2 598.735 34V38C598.735 60.8 592.835 72 580.535 72C568.235 72 562.335 60.8 562.335 38ZM575.735 16.1V55.9C575.735 60 577.235 63 580.535 63C583.835 63 585.335 60 585.335 55.9V16.1C585.335 12 583.835 9 580.535 9C577.235 9 575.735 12 575.735 16.1Z" fill="#043F28"/>
<path d="M527.409 1H544.709C556.709 1 562.909 9.8 562.909 21.4V25.4C562.909 37 555.509 45.8 544.709 45.8H540.209V71H527.409V1ZM549.509 29.9V16.9C549.509 12.8 548.009 9.8 543.909 9.8H540.209V37H543.909C548.009 37 549.509 34 549.509 29.9Z" fill="#043F28"/>
<path d="M522.793 18.2V24.1H510.093V16.4C510.093 11.7 508.593 9 505.393 9C502.593 9 501.193 11.5 501.193 14.5C501.193 17.2 502.593 19.8 506.893 25.5L516.293 38.1C521.893 45.6 523.393 49.1 523.393 55.6C523.393 65.2 515.593 72 506.193 72C497.193 72 488.593 66.8 488.593 52.8V46H501.293V55C501.293 60.7 503.293 63 506.293 63C508.993 63 511.093 60.7 511.093 57.2C511.093 53.8 510.293 51.7 505.893 45.9L496.493 33.5C490.793 25.9 489.393 21.9 489.393 15.3C489.393 8.2 495.093 0 505.893 0C515.493 0 522.793 6.9 522.793 18.2Z" fill="#043F28"/>
<path d="M469.37 47.6L471.57 71L458.87 71.1L456.67 45.4C456.37 42.3 454.87 40.4 451.77 40.4H450.17V71H437.37V1H453.47C464.27 1 471.67 7.6 471.67 19.6C471.67 30.1 465.97 34.8 460.57 35.3V36.5C464.37 36.9 468.57 38.9 469.37 47.6ZM450.17 10V31.4H452.67C456.77 31.4 458.27 28.4 458.27 24.3V17.1C458.27 13 456.77 10 452.67 10H450.17Z" fill="#043F28"/>
<path d="M431.869 29.2V38.2H421.069V62H432.869V71H408.269V1H432.869V10H421.069V29.2H431.869Z" fill="#043F28"/>
<path d="M366.374 71V1H379.574L390.674 43.1H391.874L390.074 20.7L389.774 1H402.274V71H389.074L377.974 28.9H376.774L378.574 51.3L378.874 71H366.374Z" fill="#043F28"/>
<path d="M353.555 10V71H340.755V10H331.855V1H362.355V10H353.555Z" fill="#043F28"/>
<path d="M327.573 47.6L329.773 71L317.073 71.1L314.873 45.4C314.573 42.3 313.073 40.4 309.973 40.4H308.373V71H295.573V1H311.673C322.473 1 329.873 7.6 329.873 19.6C329.873 30.1 324.173 34.8 318.773 35.3V36.5C322.573 36.9 326.773 38.9 327.573 47.6ZM308.373 10V31.4H310.873C314.973 31.4 316.473 28.4 316.473 24.3V17.1C316.473 13 314.973 10 310.873 10H308.373Z" fill="#043F28"/>
<path d="M292.409 71H279.209L277.609 55.8H268.609L267.009 71H253.809L264.609 1H281.609L292.409 71ZM271.009 33.5L269.609 46.8H276.609L275.209 33.5L273.709 13.9H272.509L271.009 33.5Z" fill="#043F28"/>
<path d="M220.183 1H237.483C249.483 1 255.683 9.8 255.683 21.4V25.4C255.683 37 248.283 45.8 237.483 45.8H232.983V71H220.183V1ZM242.283 29.9V16.9C242.283 12.8 240.783 9.8 236.683 9.8H232.983V37H236.683C240.783 37 242.283 34 242.283 29.9Z" fill="#043F28"/>
<path d="M188.365 55.9V37.7C188.365 33.6 186.865 30.6 183.565 30.6C180.265 30.6 178.765 33.6 178.765 37.7V38.7H166.165L166.265 1H199.665V10.3H178.765V25.4H179.965C181.865 22.2 184.065 19.8 188.565 19.8C196.765 19.8 201.765 29.3 201.765 45.9C201.765 63.2 194.565 72 183.765 72C171.965 72 165.965 62.4 165.965 49.3V48.2H179.165V55.9C179.165 60 180.465 63 183.765 63C187.065 63 188.365 60 188.365 55.9Z" fill="#043F28"/>
<path d="M162.737 19.6C162.737 32.9 156.237 44.2 142.037 60.3V61.5H162.737V71H128.437V61.3C144.937 42.4 149.437 31.8 149.437 16.7C149.437 11.9 148.737 9 145.937 9C143.137 9 142.337 11.9 142.337 16.7V25.6H128.937V19.6C128.937 8 135.837 0 146.037 0C156.237 0 162.737 7.2 162.737 19.6Z" fill="#043F28"/>
<path d="M90.5578 38V34C90.5578 11.2 96.4578 0 108.758 0C121.058 0 126.958 11.2 126.958 34V38C126.958 60.8 121.058 72 108.758 72C96.4578 72 90.5578 60.8 90.5578 38ZM104.858 37.1L113.558 23V16.1C113.558 12 112.058 9 108.758 9C105.458 9 103.958 12 103.958 16.1V29.8L103.658 37.1H104.858ZM113.558 42.2L113.858 34.9H112.558L103.958 49V55.9C103.958 60 105.458 63 108.758 63C112.058 63 113.558 60 113.558 55.9V42.2Z" fill="#043F28"/>
<path d="M88.0297 19.6C88.0297 32.9 81.5297 44.2 67.3297 60.3V61.5H88.0297V71H53.7297V61.3C70.2297 42.4 74.7297 31.8 74.7297 16.7C74.7297 11.9 74.0297 9 71.2297 9C68.4297 9 67.6297 11.9 67.6297 16.7V25.6H54.2297V19.6C54.2297 8 61.1297 0 71.3297 0C81.5297 0 88.0297 7.2 88.0297 19.6Z" fill="#043F28"/>
<path d="M38.6 71H25.4L23.8 55.8H14.8L13.2 71H0L10.8 1H27.8L38.6 71ZM17.2 33.5L15.8 46.8H22.8L21.4 33.5L19.9 13.9H18.7L17.2 33.5Z" fill="#043F28"/>
</svg>
