<svg width="890" height="83" viewBox="0 0 890 83" fill="none" xmlns="http://www.w3.org/2000/svg">
<path d="M887.241 47.6L889.441 71L876.741 71.1L874.541 45.4C874.241 42.3 872.741 40.4 869.641 40.4H868.041V71H855.241V1H871.341C882.141 1 889.541 7.6 889.541 19.6C889.541 30.1 883.841 34.8 878.441 35.3V36.5C882.241 36.9 886.441 38.9 887.241 47.6ZM868.041 10V31.4H870.541C874.641 31.4 876.141 28.4 876.141 24.3V17.1C876.141 13 874.641 10 870.541 10H868.041Z" fill="white"/>
<path d="M849.74 29.2V38.2H838.94V62H850.74V71H826.14V1H850.74V10H838.94V29.2H849.74Z" fill="white"/>
<path d="M787.218 1H801.618L804.018 23.9L805.718 46H806.918L808.018 23.9L809.918 1H822.918L813.818 71H799.618L796.818 47.2L795.018 26H793.818L792.118 47.2L789.318 71H775.018L765.918 1H778.918L780.818 23.9L782.018 46H783.218L784.818 23.9L787.218 1Z" fill="white"/>
<path d="M728.839 38V34C728.839 11.2 734.739 0 747.039 0C759.339 0 765.239 11.2 765.239 34V38C765.239 60.8 759.339 72 747.039 72C734.739 72 728.839 60.8 728.839 38ZM742.239 16.1V55.9C742.239 60 743.739 63 747.039 63C750.339 63 751.839 60 751.839 55.9V16.1C751.839 12 750.339 9 747.039 9C743.739 9 742.239 12 742.239 16.1Z" fill="white"/>
<path d="M693.913 1H711.213C723.213 1 729.413 9.8 729.413 21.4V25.4C729.413 37 722.013 45.8 711.213 45.8H706.713V71H693.913V1ZM716.013 29.9V16.9C716.013 12.8 714.513 9.8 710.413 9.8H706.713V37H710.413C714.513 37 716.013 34 716.013 29.9Z" fill="white"/>
<path d="M652.209 71H639.909V1H655.209L662.009 34.8L663.309 42.9H664.509L665.809 34.8L672.609 1H687.909V71H675.609L676.009 50.3L677.609 27.9H676.409L668.009 71H659.809L651.409 27.9H650.209L651.809 50.3L652.209 71Z" fill="white"/>
<path d="M634.408 29.2V38.2H623.608V62H635.408V71H610.808V1H635.408V10H623.608V29.2H634.408Z" fill="white"/>
<path d="M591.341 29.2V38.2H580.541V62H592.341V71H567.741V1H592.341V10H580.541V29.2H591.341Z" fill="white"/>
<path d="M528.82 1H543.22L545.62 23.9L547.32 46H548.52L549.62 23.9L551.52 1H564.52L555.419 71H541.22L538.419 47.2L536.62 26H535.419L533.72 47.2L530.919 71H516.62L507.52 1H520.52L522.419 23.9L523.62 46H524.82L526.419 23.9L528.82 1Z" fill="white"/>
<path d="M474.8 83L478.8 58.7H493.4L482.9 83H474.8Z" fill="white"/>
<path d="M468.984 10V71H456.184V10H447.284V1H477.784V10H468.984Z" fill="white"/>
<path d="M445.645 18.2V24.1H432.945V16.4C432.945 11.7 431.445 9 428.245 9C425.445 9 424.045 11.5 424.045 14.5C424.045 17.2 425.445 19.8 429.745 25.5L439.145 38.1C444.745 45.6 446.245 49.1 446.245 55.6C446.245 65.2 438.445 72 429.045 72C420.045 72 411.445 66.8 411.445 52.8V46H424.145V55C424.145 60.7 426.145 63 429.145 63C431.845 63 433.945 60.7 433.945 57.2C433.945 53.8 433.145 51.7 428.745 45.9L419.345 33.5C413.645 25.9 412.245 21.9 412.245 15.3C412.245 8.2 417.945 0 428.745 0C438.345 0 445.645 6.9 445.645 18.2Z" fill="white"/>
<path d="M407.943 29.2V38.2H397.143V62H408.943V71H384.343V1H408.943V10H397.143V29.2H407.943Z" fill="white"/>
<path d="M381.129 1L371.229 71H354.529L344.629 1H357.929L361.429 40.2L362.329 55.9H363.529L364.329 40.3L367.829 1H381.129Z" fill="white"/>
<path d="M305.534 71V1H318.734L329.834 43.1H331.034L329.234 20.7L328.934 1H341.434V71H328.234L317.134 28.9H315.934L317.734 51.3L318.034 71H305.534Z" fill="white"/>
<path d="M286.687 1H299.487V71H286.687V1Z" fill="white"/>
<path d="M267.22 29.2V38.2H256.42V62H268.22V71H243.62V1H268.22V10H256.42V29.2H267.22Z" fill="white"/>
<path d="M204.698 1H219.098L221.498 23.9L223.198 46H224.398L225.498 23.9L227.398 1H240.398L231.298 71H217.098L214.298 47.2L212.498 26H211.298L209.598 47.2L206.798 71H192.498L183.398 1H196.398L198.298 23.9L199.498 46H200.698L202.298 23.9L204.698 1Z" fill="white"/>
<path d="M130.339 71V1H143.539L154.639 43.1H155.839L154.039 20.7L153.739 1H166.239V71H153.039L141.939 28.9H140.739L142.539 51.3L142.839 71H130.339Z" fill="white"/>
<path d="M124.837 29.2V38.2H114.037V62H125.837V71H101.237V1H125.837V10H114.037V29.2H124.837Z" fill="white"/>
<path d="M73.0219 28.2H82.4219V1H95.2219V71H82.4219V37.2H73.0219V71H60.2219V1H73.0219V28.2Z" fill="white"/>
<path d="M21.3 1H35.7L38.1 23.9L39.8 46H41L42.1 23.9L44 1H57L47.9 71H33.7L30.9 47.2L29.1 26H27.9L26.2 47.2L23.4 71H9.1L0 1H13L14.9 23.9L16.1 46H17.3L18.9 23.9L21.3 1Z" fill="white"/>
</svg>
