<svg width="636" height="72" viewBox="0 0 636 72" fill="none" xmlns="http://www.w3.org/2000/svg">
<path d="M623.765 58.9H618.665V60.4C623.465 61.9 625.165 65.8 625.165 71H609.665C609.665 65.8 611.665 61.8 616.165 60.4V58.9H610.965V55C610.965 35.8 622.565 35.7 622.565 19V15.7C622.565 11.6 621.665 9 618.865 9C616.065 9 615.065 11.6 615.065 15.7V26.6H602.265V18.7C602.265 8 608.765 0 618.965 0C629.165 0 635.665 8 635.665 18.7C635.665 35.7 623.765 37.6 623.765 55.9V58.9Z" fill="#043F28"/>
<path d="M601.1 71H587.9L586.3 55.8H577.3L575.7 71H562.5L573.3 1H590.3L601.1 71ZM579.7 33.5L578.3 46.8H585.3L583.9 33.5L582.4 13.9H581.2L579.7 33.5Z" fill="#043F28"/>
<path d="M546.452 1H559.252V71H546.452V1Z" fill="#043F28"/>
<path d="M506.12 1H522.82C536.32 1 541.92 12.3 541.92 34.1V38.6C541.92 59.9 536.42 71 523.32 71H506.12V1ZM528.52 54.9V17.1C528.52 13 527.02 10 522.92 10H518.92V62H522.92C527.02 62 528.52 59 528.52 54.9Z" fill="#043F28"/>
<path d="M464.226 71V1H477.426L488.526 43.1H489.726L487.926 20.7L487.626 1H500.126V71H486.926L475.826 28.9H474.626L476.426 51.3L476.726 71H464.226Z" fill="#043F28"/>
<path d="M445.378 1H458.178V71H445.378V1Z" fill="#043F28"/>
<path d="M391.96 1H409.26C421.26 1 427.46 9.8 427.46 21.4V25.4C427.46 37 420.06 45.8 409.26 45.8H404.76V71H391.96V1ZM414.06 29.9V16.9C414.06 12.8 412.56 9.8 408.46 9.8H404.76V37H408.46C412.56 37 414.06 34 414.06 29.9Z" fill="#043F28"/>
<path d="M388.795 71H375.595L373.995 55.8H364.995L363.395 71H350.195L360.995 1H377.995L388.795 71ZM367.395 33.5L365.995 46.8H372.995L371.595 33.5L370.095 13.9H368.895L367.395 33.5Z" fill="#043F28"/>
<path d="M347.494 29.2V38.2H336.694V62H348.494V71H323.894V1H348.494V10H336.694V29.2H347.494Z" fill="#043F28"/>
<path d="M308.08 1V62H319.88V71H295.28V1H308.08Z" fill="#043F28"/>
<path d="M267.065 28.2H276.465V1H289.265V71H276.465V37.2H267.065V71H254.265V1H267.065V28.2Z" fill="#043F28"/>
<path d="M236.405 40.9H249.805V44.3C249.805 63.5 242.105 72 231.705 72C220.805 72 213.605 63.2 213.605 38V34C213.605 8.8 220.905 0 231.705 0C242.105 0 249.805 8.8 249.805 27.5V29.9H236.405V16.1C236.405 12 235.005 9 231.705 9C228.405 9 227.005 12 227.005 16.1V55.9C227.005 60 228.405 63 231.705 63C235.005 63 236.405 60 236.405 55.9V40.9Z" fill="#043F28"/>
<path d="M209.603 29.2V38.2H198.803V62H210.603V71H186.003V1H210.603V10H198.803V29.2H209.603Z" fill="#043F28"/>
<path d="M173.184 10V71H160.384V10H151.484V1H181.984V10H173.184Z" fill="#043F28"/>
<path d="M122.737 1H136.337L123.737 45.5V71H110.937V45.5L98.4375 1H111.937L115.137 18.3L116.737 32.2H117.937L119.537 18.3L122.737 1Z" fill="#043F28"/>
<path d="M73.0219 28.2H82.4219V1H95.2219V71H82.4219V37.2H73.0219V71H60.2219V1H73.0219V28.2Z" fill="#043F28"/>
<path d="M21.3 1H35.7L38.1 23.9L39.8 46H41L42.1 23.9L44 1H57L47.9 71H33.7L30.9 47.2L29.1 26H27.9L26.2 47.2L23.4 71H9.1L0 1H13L14.9 23.9L16.1 46H17.3L18.9 23.9L21.3 1Z" fill="#043F28"/>
</svg>
